<mxfile host="app.diagrams.net" modified="2023-11-21T15:12:19.396Z" agent="Mozilla/5.0 (Windows NT 10.0; Win64; x64; rv:109.0) Gecko/20100101 Firefox/119.0" etag="cG4GIEGu7adecJ118-oK" version="22.1.3" type="github">
  <diagram name="Page-1" id="mPfZ95HiW5uyjaMLNJV8">
    <mxGraphModel dx="385" dy="446" grid="1" gridSize="10" guides="1" tooltips="1" connect="1" arrows="1" fold="1" page="1" pageScale="1" pageWidth="850" pageHeight="1100" math="0" shadow="0">
      <root>
        <mxCell id="0" />
        <mxCell id="1" parent="0" />
        <mxCell id="ai_I7JruXdx6hnsr-R0Y-1" value="Vrab" style="rounded=1;whiteSpace=wrap;html=1;" vertex="1" parent="1">
          <mxGeometry x="300" y="150" width="120" height="60" as="geometry" />
        </mxCell>
        <mxCell id="ai_I7JruXdx6hnsr-R0Y-19" value="ime, prezime, &lt;u&gt;embg&lt;/u&gt;, email, (grad, ulica, broj), {telBr}" style="ellipse;whiteSpace=wrap;html=1;align=center;" vertex="1" parent="1">
          <mxGeometry x="175" y="90" width="370" height="40" as="geometry" />
        </mxCell>
        <mxCell id="ai_I7JruXdx6hnsr-R0Y-20" style="rounded=0;orthogonalLoop=1;jettySize=auto;html=1;exitX=0.5;exitY=0;exitDx=0;exitDy=0;entryX=0.488;entryY=1.021;entryDx=0;entryDy=0;entryPerimeter=0;endArrow=none;endFill=0;" edge="1" parent="1" source="ai_I7JruXdx6hnsr-R0Y-1" target="ai_I7JruXdx6hnsr-R0Y-19">
          <mxGeometry relative="1" as="geometry" />
        </mxCell>
        <mxCell id="ai_I7JruXdx6hnsr-R0Y-21" value="" style="endArrow=none;html=1;rounded=0;labelBackgroundColor=default;strokeColor=default;align=center;verticalAlign=middle;fontFamily=Helvetica;fontSize=11;fontColor=default;shape=connector;entryX=0;entryY=1;entryDx=0;entryDy=0;exitX=0.5;exitY=0;exitDx=0;exitDy=0;" edge="1" parent="1" source="ai_I7JruXdx6hnsr-R0Y-29" target="ai_I7JruXdx6hnsr-R0Y-1">
          <mxGeometry width="50" height="50" relative="1" as="geometry">
            <mxPoint x="250" y="260" as="sourcePoint" />
            <mxPoint x="280" y="240" as="targetPoint" />
          </mxGeometry>
        </mxCell>
        <mxCell id="ai_I7JruXdx6hnsr-R0Y-22" value="" style="endArrow=none;html=1;rounded=0;labelBackgroundColor=default;strokeColor=default;align=center;verticalAlign=middle;fontFamily=Helvetica;fontSize=11;fontColor=default;shape=connector;entryX=0.75;entryY=1;entryDx=0;entryDy=0;exitX=0.5;exitY=0;exitDx=0;exitDy=0;" edge="1" parent="1" source="ai_I7JruXdx6hnsr-R0Y-23" target="ai_I7JruXdx6hnsr-R0Y-1">
          <mxGeometry width="50" height="50" relative="1" as="geometry">
            <mxPoint x="390" y="250" as="sourcePoint" />
            <mxPoint x="420" y="240" as="targetPoint" />
          </mxGeometry>
        </mxCell>
        <mxCell id="ai_I7JruXdx6hnsr-R0Y-26" style="edgeStyle=none;shape=connector;rounded=0;orthogonalLoop=1;jettySize=auto;html=1;labelBackgroundColor=default;strokeColor=default;align=center;verticalAlign=middle;fontFamily=Helvetica;fontSize=11;fontColor=default;endArrow=none;endFill=0;" edge="1" parent="1" source="ai_I7JruXdx6hnsr-R0Y-23" target="ai_I7JruXdx6hnsr-R0Y-25">
          <mxGeometry relative="1" as="geometry" />
        </mxCell>
        <mxCell id="ai_I7JruXdx6hnsr-R0Y-28" style="edgeStyle=none;shape=connector;rounded=0;orthogonalLoop=1;jettySize=auto;html=1;labelBackgroundColor=default;strokeColor=default;align=center;verticalAlign=middle;fontFamily=Helvetica;fontSize=11;fontColor=default;endArrow=none;endFill=0;" edge="1" parent="1" source="ai_I7JruXdx6hnsr-R0Y-23" target="ai_I7JruXdx6hnsr-R0Y-27">
          <mxGeometry relative="1" as="geometry">
            <mxPoint x="330" y="340" as="targetPoint" />
          </mxGeometry>
        </mxCell>
        <mxCell id="ai_I7JruXdx6hnsr-R0Y-23" value="&lt;div&gt;O&lt;/div&gt;&lt;div&gt;&lt;br&gt;&lt;/div&gt;" style="ellipse;whiteSpace=wrap;html=1;fontFamily=Helvetica;fontSize=11;fontColor=default;" vertex="1" parent="1">
          <mxGeometry x="360" y="240" width="50" height="40" as="geometry" />
        </mxCell>
        <mxCell id="ai_I7JruXdx6hnsr-R0Y-37" style="edgeStyle=none;shape=connector;rounded=0;orthogonalLoop=1;jettySize=auto;html=1;labelBackgroundColor=default;strokeColor=default;align=center;verticalAlign=middle;fontFamily=Helvetica;fontSize=11;fontColor=default;endArrow=none;endFill=0;" edge="1" parent="1" source="ai_I7JruXdx6hnsr-R0Y-25" target="ai_I7JruXdx6hnsr-R0Y-36">
          <mxGeometry relative="1" as="geometry" />
        </mxCell>
        <mxCell id="ai_I7JruXdx6hnsr-R0Y-25" value="Agent" style="rounded=1;arcSize=10;whiteSpace=wrap;html=1;align=center;fontFamily=Helvetica;fontSize=11;fontColor=default;" vertex="1" parent="1">
          <mxGeometry x="430" y="300" width="40" height="40" as="geometry" />
        </mxCell>
        <mxCell id="ai_I7JruXdx6hnsr-R0Y-40" value="1" style="edgeStyle=none;shape=link;rounded=0;orthogonalLoop=1;jettySize=auto;html=1;labelBackgroundColor=default;strokeColor=default;align=center;verticalAlign=middle;fontFamily=Helvetica;fontSize=11;fontColor=default;endArrow=none;endFill=0;" edge="1" parent="1" source="ai_I7JruXdx6hnsr-R0Y-27" target="ai_I7JruXdx6hnsr-R0Y-39">
          <mxGeometry relative="1" as="geometry" />
        </mxCell>
        <mxCell id="ai_I7JruXdx6hnsr-R0Y-27" value="agentMenager" style="rounded=1;arcSize=10;whiteSpace=wrap;html=1;align=center;fontFamily=Helvetica;fontSize=11;fontColor=default;" vertex="1" parent="1">
          <mxGeometry x="360" y="390" width="75" height="40" as="geometry" />
        </mxCell>
        <mxCell id="ai_I7JruXdx6hnsr-R0Y-31" style="edgeStyle=none;shape=connector;rounded=0;orthogonalLoop=1;jettySize=auto;html=1;exitX=0.25;exitY=0;exitDx=0;exitDy=0;entryX=1;entryY=1;entryDx=0;entryDy=0;labelBackgroundColor=default;strokeColor=default;align=center;verticalAlign=middle;fontFamily=Helvetica;fontSize=11;fontColor=default;endArrow=none;endFill=0;" edge="1" parent="1" source="ai_I7JruXdx6hnsr-R0Y-29" target="ai_I7JruXdx6hnsr-R0Y-30">
          <mxGeometry relative="1" as="geometry" />
        </mxCell>
        <mxCell id="ai_I7JruXdx6hnsr-R0Y-34" style="edgeStyle=none;shape=connector;rounded=0;orthogonalLoop=1;jettySize=auto;html=1;exitX=0;exitY=0.75;exitDx=0;exitDy=0;entryX=1;entryY=0.5;entryDx=0;entryDy=0;labelBackgroundColor=default;strokeColor=default;align=center;verticalAlign=middle;fontFamily=Helvetica;fontSize=11;fontColor=default;endArrow=none;endFill=0;" edge="1" parent="1" source="ai_I7JruXdx6hnsr-R0Y-29" target="ai_I7JruXdx6hnsr-R0Y-33">
          <mxGeometry relative="1" as="geometry" />
        </mxCell>
        <mxCell id="ai_I7JruXdx6hnsr-R0Y-29" value="Prodavac" style="rounded=1;arcSize=10;whiteSpace=wrap;html=1;align=center;fontFamily=Helvetica;fontSize=11;fontColor=default;" vertex="1" parent="1">
          <mxGeometry x="260" y="260" width="55" height="40" as="geometry" />
        </mxCell>
        <mxCell id="ai_I7JruXdx6hnsr-R0Y-30" value="iskustvo" style="ellipse;whiteSpace=wrap;html=1;align=center;fontFamily=Helvetica;fontSize=11;fontColor=default;" vertex="1" parent="1">
          <mxGeometry x="185" y="210" width="65" height="40" as="geometry" />
        </mxCell>
        <mxCell id="ai_I7JruXdx6hnsr-R0Y-33" value="prethRabMesta" style="ellipse;shape=doubleEllipse;margin=3;whiteSpace=wrap;html=1;align=center;fontFamily=Helvetica;fontSize=11;fontColor=default;" vertex="1" parent="1">
          <mxGeometry x="130" y="270" width="100" height="40" as="geometry" />
        </mxCell>
        <mxCell id="ai_I7JruXdx6hnsr-R0Y-36" value="&lt;div&gt;jazici&lt;/div&gt;&lt;div&gt;&lt;br&gt;&lt;/div&gt;" style="ellipse;shape=doubleEllipse;margin=3;whiteSpace=wrap;html=1;align=center;fontFamily=Helvetica;fontSize=11;fontColor=default;" vertex="1" parent="1">
          <mxGeometry x="480" y="360" width="55" height="40" as="geometry" />
        </mxCell>
        <mxCell id="ai_I7JruXdx6hnsr-R0Y-39" value="menadzira" style="shape=rhombus;perimeter=rhombusPerimeter;whiteSpace=wrap;html=1;align=center;fontFamily=Helvetica;fontSize=11;fontColor=default;" vertex="1" parent="1">
          <mxGeometry x="290" y="320" width="80" height="60" as="geometry" />
        </mxCell>
        <mxCell id="ai_I7JruXdx6hnsr-R0Y-41" value="M" style="edgeStyle=none;shape=link;rounded=0;orthogonalLoop=1;jettySize=auto;html=1;labelBackgroundColor=default;strokeColor=default;align=center;verticalAlign=middle;fontFamily=Helvetica;fontSize=11;fontColor=default;endArrow=none;endFill=0;" edge="1" parent="1" source="ai_I7JruXdx6hnsr-R0Y-29" target="ai_I7JruXdx6hnsr-R0Y-39">
          <mxGeometry relative="1" as="geometry" />
        </mxCell>
      </root>
    </mxGraphModel>
  </diagram>
</mxfile>
